<svg xmlns="http://www.w3.org/2000/svg" width="24" height="25" viewBox="0 0 24 25" fill="none">
    <path d="M21.5933 7.83484C21.4794 7.41225 21.2568 7.02685 20.9477 6.71701C20.6386 6.40717 20.2537 6.1837 19.8313 6.06884C18.2653 5.63884 12.0003 5.63184 12.0003 5.63184C12.0003 5.63184 5.73633 5.62484 4.16933 6.03584C3.74725 6.15599 3.36315 6.38262 3.0539 6.69398C2.74464 7.00534 2.52062 7.39096 2.40333 7.81384C1.99033 9.37984 1.98633 12.6278 1.98633 12.6278C1.98633 12.6278 1.98233 15.8918 2.39233 17.4418C2.62233 18.2988 3.29733 18.9758 4.15533 19.2068C5.73733 19.6368 11.9853 19.6438 11.9853 19.6438C11.9853 19.6438 18.2503 19.6508 19.8163 19.2408C20.2388 19.1262 20.6241 18.9032 20.934 18.594C21.2439 18.2848 21.4677 17.9001 21.5833 17.4778C21.9973 15.9128 22.0003 12.6658 22.0003 12.6658C22.0003 12.6658 22.0203 9.40084 21.5933 7.83484ZM9.99633 15.6368L10.0013 9.63684L15.2083 12.6418L9.99633 15.6368Z" fill="#ffffff"></path>
</svg>
